<svg xmlns="http://www.w3.org/2000/svg" viewBox="0 0 739.31 510.17"><defs><style>.cls-1{fill:#00e36e;}.cls-2{fill:#15a98d;}.cls-3{fill:#c2ff00;}.cls-4{fill:#7f0;}.cls-5{fill:#00bd97;}</style></defs><g id="Layer_2" data-name="Layer 2"><path class="cls-1" d="M230.84,98.21h-.05l0,0-2.27-.7a1.47,1.47,0,0,0-1.9,1.36l-.2,6.54h0L219.77,315.2a3.28,3.28,0,0,0,5,2.91l49.55-30.2,164-100,22.32-13.61a3.29,3.29,0,0,0-.74-6Z"/><path class="cls-1" d="M406.3,299.19l-26.67-48.27a6.88,6.88,0,0,0-9.52-2.61l-96,56.4a6.84,6.84,0,0,0-.48,11.49l86.1,60.69,138.17,97.39a2.39,2.39,0,0,0,3.46-3.11Z"/><path class="cls-2" d="M370.22,248.24,273.53,305a6.44,6.44,0,0,0-.45,10.81l86.61,61.05,46.61-77.7-26.73-48.38A6.76,6.76,0,0,0,370.22,248.24Z"/><path class="cls-3" d="M246.23,322l-23.09,11.88a4.17,4.17,0,0,0-2.26,3.48l-9.27,158.87a.43.43,0,0,0,.85.13L256,321a2.14,2.14,0,0,0-3.06-2.42Z"/><path class="cls-4" d="M242.17,324.13,212.46,496.4l43.76-176.3a1.71,1.71,0,0,0-2.45-1.94Z"/><path class="cls-3" d="M274.31,287.91,224.93,318a3.87,3.87,0,0,1-5.89-3.44L226.57,99Z"/><path class="cls-5" d="M460.36,174.52l-22,13.43C413.6,176.85,233.79,99.48,230.79,98.2l228.78,70.09A3.44,3.44,0,0,1,460.36,174.52Z"/></g></svg>