<svg xmlns="http://www.w3.org/2000/svg" viewBox="0 0 2678 1848"><defs><style>.cls-1{fill:#00e36e;}.cls-2{fill:#15a98d;}.cls-3{fill:#c2ff00;}.cls-4{fill:#7f0;}.cls-5{fill:#00bd97;}.cls-6{font-size:622px;fill:#fff;font-family:AlwynNewRounded-Regular, Alwyn New Rounded;}</style></defs><g id="Layer_2" data-name="Layer 2"><path class="cls-1" d="M123.36,891.68l-.08,0-.07,0-4-1.23a2.6,2.6,0,0,0-3.35,2.39l-.36,11.56v0l-11.67,370.7a5.8,5.8,0,0,0,8.82,5.14l87.54-53.36L490,1050.21l39.44-24a5.81,5.81,0,0,0-1.32-10.51Z"/><path class="cls-1" d="M433.37,1246.76l-47.11-85.28a12.19,12.19,0,0,0-16.84-4.62l-169.68,99.66a12.08,12.08,0,0,0-.85,20.29L351,1384l244.12,172.08a4.22,4.22,0,0,0,6.12-5.49Z"/><path class="cls-2" d="M369.62,1156.75,198.79,1257.08a11.37,11.37,0,0,0-.79,19.1L351,1384l82.35-137.28-47.22-85.48A12,12,0,0,0,369.62,1156.75Z"/><path class="cls-3" d="M150.56,1287.13l-40.8,21a7.37,7.37,0,0,0-4,6.14L89.38,1595a.77.77,0,0,0,1.51.23l76.92-309.87a3.79,3.79,0,0,0-5.41-4.28Z"/><path class="cls-4" d="M143.38,1290.82,90.89,1595.19l77.32-311.49a3,3,0,0,0-4.33-3.42Z"/><path class="cls-3" d="M200.17,1226.84,112.92,1280a6.85,6.85,0,0,1-10.4-6.08L115.82,893Z"/><path class="cls-5" d="M528.88,1026.49,490,1050.21c-43.69-19.6-361.39-156.29-366.68-158.56l404.21,123.83A6.08,6.08,0,0,1,528.88,1026.49Z"/></g><g id="Layer_4" data-name="Layer 4"><text class="cls-6" transform="translate(675.1 1422.5)">rayDM</text></g></svg>